<?xml version="1.0" encoding="UTF-8"?>
<svg width="20px" height="16px" viewBox="0 0 20 16" version="1.1" xmlns="http://www.w3.org/2000/svg" xmlns:xlink="http://www.w3.org/1999/xlink">
    <!-- Generator: Sketch 58 (84663) - https://sketch.com -->
    <title>Filters</title>
    <desc>Created with Sketch.</desc>
    <defs>
        <path d="M22.5882353,19 C23.3679314,19 24,19.6320686 24,20.4117647 L24,20.5882353 C24,21.3679314 23.3679314,22 22.5882353,22 L5.41176471,22 C4.63206859,22 4,21.3679314 4,20.5882353 L4,20.4117647 C4,19.6320686 4.63206859,19 5.41176471,19 L22.5882353,19 Z M14.5882353,12.5882353 C15.3679314,12.5882353 16,13.2203039 16,14 C16,14.7796961 15.3679314,15.4117647 14.5882353,15.4117647 L5.41176471,15.4117647 C4.63206859,15.4117647 4,14.7796961 4,14 C4,13.2203039 4.63206859,12.5882353 5.41176471,12.5882353 L14.5882353,12.5882353 Z M20.6032769,6 C21.3746658,6 22,6.62533422 22,7.39672307 L22,7.60327693 C22,8.37466578 21.3746658,9 20.6032769,9 L5.44053565,9 C4.66914679,9 4.04381257,8.37466578 4.04381257,7.60327693 L4.04381257,7.39672307 C4.04381257,6.62533422 4.66914679,6 5.44053565,6 L20.6032769,6 Z" id="path-1"></path>
    </defs>
    <g id="Symbols" stroke="none" stroke-width="1" fill="none" fill-rule="evenodd">
        <g id="Icons-/-Menu---Style-2" transform="translate(-4.000000, -6.000000)">
            <mask id="mask-2" fill="white">
                <use xlink:href="#path-1"></use>
            </mask>
            <use id="Filters" fill="#000000" xlink:href="#path-1"></use>
        </g>
    </g>
</svg>